0
SECTION
2
HEADER
9
$INSUNITS
70
1
9
$ACADVER
1
AC1014
9
$HANDSEED
5
FFFF
0
ENDSEC
0
SECTION
2
TABLES
0
TABLE
2
VPORT
5
8
100
AcDbSymbolTable
0
ENDTAB
0
TABLE
2
LTYPE
5
5
100
AcDbSymbolTable
0
LTYPE
5
14
100
AcDbSymbolTableRecord
100
AcDbLinetypeTableRecord
2
BYBLOCK
70
0
0
LTYPE
5
15
100
AcDbSymbolTableRecord
100
AcDbLinetypeTableRecord
2
BYLAYER
70
0
0
ENDTAB
0
TABLE
2
LAYER
5
2
100
AcDbSymbolTable
70
2
0
LAYER
5
50
100
AcDbSymbolTableRecord
100
AcDbLayerTableRecord
2
0
70
0
6
CONTINUOUS
0
ENDTAB
0
TABLE
2
STYLE
5
3
100
AcDbSymbolTable
70
1
0
STYLE
5
11
100
AcDbSymbolTableRecord
100
AcDbTextStyleTableRecord
2
STANDARD
70
0
0
ENDTAB
0
TABLE
2
VIEW
5
6
100
AcDbSymbolTable
70
0
0
ENDTAB
0
TABLE
2
UCS
5
7
100
AcDbSymbolTable
70
0
0
ENDTAB
0
TABLE
2
APPID
5
9
100
AcDbSymbolTable
70
2
0
APPID
5
12
100
AcDbSymbolTableRecord
100
AcDbRegAppTableRecord
2
ACAD
70
0
0
ENDTAB
0
TABLE
2
DIMSTYLE
5
A
100
AcDbSymbolTable
70
1
0
ENDTAB
0
TABLE
2
BLOCK_RECORD
5
1
100
AcDbSymbolTable
70
1
0
BLOCK_RECORD
5
1F
100
AcDbSymbolTableRecord
100
AcDbBlockTableRecord
2
*MODEL_SPACE
0
BLOCK_RECORD
5
1B
100
AcDbSymbolTableRecord
100
AcDbBlockTableRecord
2
*PAPER_SPACE
0
ENDTAB
0
ENDSEC
0
SECTION
2
BLOCKS
0
BLOCK
5
20
100
AcDbEntity
100
AcDbBlockBegin
2
*MODEL_SPACE
0
ENDBLK
5
21
100
AcDbEntity
100
AcDbBlockEnd
0
BLOCK
5
1C
100
AcDbEntity
100
AcDbBlockBegin
2
*PAPER_SPACE
0
ENDBLK
5
1D
100
AcDbEntity
100
AcDbBlockEnd
0
ENDSEC
0
SECTION
2
ENTITIES
0
SPLINE
5
100
100
AcDbEntity
8
0
100
AcDbSpline
70
0
71
3
72
29
73
25
74
0
42
0.000000001
43
0.0000000001
44
0.0000000001
40
-0.00019502051231328062
40
-0.00019502051231328062
40
-0.00019502051231328062
40
-0.00019502051231328062
40
0
40
0
40
0
40
0.15091249712016386
40
0.15091249712016386
40
0.15091249712016386
40
0.30993882115448673
40
0.30993882115448673
40
0.30993882115448673
40
0.44441520293730091
40
0.44441520293730091
40
0.44441520293730091
40
0.60029917224854568
40
0.60029917224854568
40
0.60029917224854568
40
0.83358137318667258
40
0.83358137318667258
40
0.83358137318667258
40
1
40
1
40
1
40
1.0000575756216987
40
1.0000575756216987
40
1.0000575756216987
40
1.0000575756216987
10
3.5688820471547889
20
2.1985049186798569
30
0
10
3.5688761333658867
20
2.1985306511001377
30
0
10
3.5688702195769819
20
2.1985563835204207
30
0
10
3.5688643057880776
20
2.1985821159407033
30
0
10
3.5642646528749062
20
2.2185963917004066
30
0
10
3.5385473593904102
20
2.2536703864462826
30
0
10
3.4964971388627535
20
2.3007571854546915
30
0
10
3.4521860836290621
20
2.3503756113620438
30
0
10
3.3916181331738842
20
2.4121009534466036
30
0
10
3.3376212983222255
20
2.4701761106401725
30
0
10
3.2919603109186055
20
2.5192858228735613
30
0
10
3.2519630418278824
20
2.5651199858457501
30
0
10
3.2142987129191676
20
2.6088647238281402
30
0
10
3.1706385176202105
20
2.6595732817382456
30
0
10
3.1269528931584261
20
2.709349013593191
30
0
10
3.0736095148733407
20
2.7640661545757386
30
0
10
2.9937805193274709
20
2.8459510022213887
30
0
10
2.8954459389372547
20
2.9373305498108371
30
0
10
2.8050478314770881
20
3.0248720795275164
30
0
10
2.7405597185840067
20
3.0873223698025631
30
0
10
2.6797432232150289
20
3.1479669903920073
30
0
10
2.62377487621136
20
3.2061956944385437
30
0
10
2.6237555122499017
20
3.2062158404396546
30
0
10
2.6237361482884434
20
3.2062359864407664
30
0
10
2.6237167843269846
20
3.2062561324418772
30
0
0
LINE
5
101
100
AcDbEntity
8
0
100
AcDbLine
10
2.6237167843269846
20
3.2062561324418777
30
0
11
-3.4294551504432302
21
3.2062561324418772
31
0
0
LINE
5
102
100
AcDbEntity
8
0
100
AcDbLine
10
-3.4294551504432298
20
3.2062561324418763
30
0
11
-3.4283384237764913
21
2.0828071179294905
31
0
0
LINE
5
103
100
AcDbEntity
8
0
100
AcDbLine
10
-3.4283384237764918
20
2.0828071179294914
30
0
11
-1.8795248641996565
21
1.8788063990077366
31
0
0
LINE
5
104
100
AcDbEntity
8
0
100
AcDbLine
10
-1.8795248641996565
20
1.8788063990077362
30
0
11
-2.8306238798580021
21
0.63946564130984418
31
0
0
SPLINE
5
105
100
AcDbEntity
8
0
100
AcDbSpline
70
0
71
3
72
44
73
40
74
0
42
0.000000001
43
0.0000000001
44
0.0000000001
40
-0.00010134886135713039
40
-0.00010134886135713039
40
-0.00010134886135713039
40
-0.00010134886135713039
40
0
40
0
40
0
40
0.086512450572916677
40
0.086512450572916677
40
0.086512450572916677
40
0.160268985309756
40
0.160268985309756
40
0.160268985309756
40
0.2511790736362256
40
0.2511790736362256
40
0.2511790736362256
40
0.31519735907888924
40
0.31519735907888924
40
0.31519735907888924
40
0.40079768919402808
40
0.40079768919402808
40
0.40079768919402808
40
0.47638629029701812
40
0.47638629029701812
40
0.47638629029701812
40
0.56761384616018939
40
0.56761384616018939
40
0.56761384616018939
40
0.65918277213749654
40
0.65918277213749654
40
0.65918277213749654
40
0.76215401583760178
40
0.76215401583760178
40
0.76215401583760178
40
0.86873245828960122
40
0.86873245828960122
40
0.86873245828960122
40
0.98614211851633726
40
0.98614211851633726
40
0.98614211851633726
40
0.99998322151857688
40
0.99998322151857688
40
0.99998322151857688
40
0.99998322151857688
10
-2.8306238798580017
20
0.63946564130984429
30
0
10
-2.8305659503907821
20
0.63942665278880206
30
0
10
-2.8305080209235607
20
0.63938766426776183
30
0
10
-2.8304500914563389
20
0.63934867574672027
30
0
10
-2.7809998277502772
20
0.60606694989185794
30
0
10
-2.7206584358335446
20
0.56631922538514312
30
0
10
-2.655416585986683
20
0.52340995971298476
30
0
10
-2.5997943867233539
20
0.48682749414736859
30
0
10
-2.5431635573531972
20
0.449480662458348
30
0
10
-2.494071687068403
20
0.41546871089980864
30
0
10
-2.4335625229702549
20
0.37354660147079671
30
0
10
-2.3833709435228663
20
0.33616054269466333
30
0
10
-2.3027186068922934
20
0.27477437861520571
30
0
10
-2.2459237626337329
20
0.23154664617525508
30
0
10
-2.1734559076508497
20
0.17591605025307319
30
0
10
-2.0915122287104211
20
0.10936002640177148
30
0
10
-1.9819434403611629
20
0.020366427566248204
30
0
10
-1.8585478650124503
20
-0.087054619033859484
30
0
10
-1.7532647961370547
20
-0.19351503040118218
30
0
10
-1.6602955297169775
20
-0.28752393851264191
30
0
10
-1.5816552321391837
20
-0.38014904796974563
30
0
10
-1.5152873188064961
20
-0.46517114145311017
30
0
10
-1.4351881711475727
20
-0.56778393848436171
30
0
10
-1.370129898717994
20
-0.65891520982362883
30
0
10
-1.304939023957183
20
-0.74551050927468732
30
0
10
-1.2395042073725762
20
-0.83242984510902396
30
0
10
-1.1743355498758021
20
-0.9171257203817218
30
0
10
-1.1114497773666649
20
-1.0103872183667812
30
0
10
-1.0407333619757881
20
-1.1152617960071964
30
0
10
-0.9746607085109753
20
-1.230127703993348
30
0
10
-0.91900008552299417
20
-1.3432929851961397
30
0
10
-0.86138960816249888
20
-1.4604225737768406
30
0
10
-0.8148880744110395
20
-1.5739533836717217
30
0
10
-0.76486014769153676
20
-1.6886287959927631
30
0
10
-0.70974804675583136
20
-1.8149582945969329
30
0
10
-0.64793550918390441
20
-1.9449922220149387
30
0
10
-0.57276586563226384
20
-2.0825890235127678
30
0
10
-0.56390432240804655
20
-2.0988099332627197
30
0
10
-0.55487609231286195
20
-2.1151249740994285
30
0
10
-0.54568114226355713
20
-2.1315341663423539
30
0
0
LINE
5
106
100
AcDbEntity
8
0
100
AcDbLine
10
-0.54568114226355713
20
-2.1315341663423539
30
0
11
-0.65705974389221133
21
-2.8300564413620664
31
0
0
LINE
5
107
100
AcDbEntity
8
0
100
AcDbLine
10
-0.65705974389221133
20
-2.830056441362065
30
0
11
1.6085790079648776
21
-3.3154643231702332
31
0
0
LINE
5
108
100
AcDbEntity
8
0
100
AcDbLine
10
1.6085790079648772
20
-3.3154643231702354
30
0
11
1.6994031071628051
21
-2.6092839885017436
31
0
0
SPLINE
5
109
100
AcDbEntity
8
0
100
AcDbSpline
70
0
71
3
72
65
73
61
74
0
42
0.000000001
43
0.0000000001
44
0.0000000001
40
-3.137325967857006e-07
40
-3.137325967857006e-07
40
-3.137325967857006e-07
40
-3.137325967857006e-07
40
0
40
0
40
0
40
0.072947872669546152
40
0.072947872669546152
40
0.072947872669546152
40
0.14217769349707693
40
0.14217769349707693
40
0.14217769349707693
40
0.20051251742157947
40
0.20051251742157947
40
0.20051251742157947
40
0.260657478515464
40
0.260657478515464
40
0.260657478515464
40
0.35307529370103097
40
0.35307529370103097
40
0.35307529370103097
40
0.4105414085698077
40
0.4105414085698077
40
0.4105414085698077
40
0.46143084002887264
40
0.46143084002887264
40
0.46143084002887264
40
0.52046724618016094
40
0.52046724618016094
40
0.52046724618016094
40
0.57225808850133486
40
0.57225808850133486
40
0.57225808850133486
40
0.63066692358638021
40
0.63066692358638021
40
0.63066692358638021
40
0.67796510441628222
40
0.67796510441628222
40
0.67796510441628222
40
0.73662425378715679
40
0.73662425378715679
40
0.73662425378715679
40
0.78070777408381298
40
0.78070777408381298
40
0.78070777408381298
40
0.82140852824075739
40
0.82140852824075739
40
0.82140852824075739
40
0.86605639618056807
40
0.86605639618056807
40
0.86605639618056807
40
0.91975859266673121
40
0.91975859266673121
40
0.91975859266673121
40
0.98578378495711694
40
0.98578378495711694
40
0.98578378495711694
40
1
40
1
40
1
40
1.0000282568977026
40
1.0000282568977026
40
1.0000282568977026
40
1.0000282568977026
10
1.6994031071628053
20
-2.6092839885017423
30
0
10
1.6994031563089351
20
-2.6092835970817587
30
0
10
1.6994032054549741
20
-2.6092832056625026
30
0
10
1.6994032546011517
20
-2.6092828142421349
30
0
10
1.7108306251805445
20
-2.5182705368508302
30
0
10
1.7248077069641328
20
-2.4021110676642761
30
0
10
1.7406309340984027
20
-2.265942377789774
30
0
10
1.7556476733031388
20
-2.1367140170802661
30
0
10
1.7721709479104508
20
-1.9905055317928702
30
0
10
1.7873519478434574
20
-1.8487567788233918
30
0
10
1.8001438480319041
20
-1.7293156413604998
30
0
10
1.8117596764159736
20
-1.614631354004479
30
0
10
1.8227291017968026
20
-1.5027480878371207
30
0
10
1.834038909873126
20
-1.3873930693767667
30
0
10
1.8450467165633648
20
-1.272366488974632
30
0
10
1.857588492593681
20
-1.1472057125981558
30
0
10
1.8768599912892949
20
-0.95488560316143312
30
0
10
1.8993165996170374
20
-0.73791824800982109
30
0
10
1.9214561176824294
20
-0.54573728204478056
30
0
10
1.9352226418718461
20
-0.42623766561731663
30
0
10
1.9488553133958411
20
-0.31748993000554693
30
0
10
1.9676130223873847
20
-0.20674523362589661
30
0
10
1.9842240138948848
20
-0.10867466371289114
30
0
10
2.0053601267796028
20
-0.0067585161969407189
30
0
10
2.0344323119259458
20
0.10738267079925809
30
0
10
2.0681587120997333
20
0.23979691243837259
30
0
10
2.1127331388960582
20
0.38901164194208504
30
0
10
2.1652195851050018
20
0.5338179827814632
30
0
10
2.2112643469192652
20
0.66085217836409405
30
0
10
2.2629305575694674
20
0.78210771665710876
30
0
10
2.3169996057351097
20
0.88517975520798164
30
0
10
2.3779777627986269
20
1.0014226551450629
30
0
10
2.4418057377938687
20
1.0941718612418501
30
0
10
2.5089434625302811
20
1.1819597196253508
30
0
10
2.5633101048450508
20
1.2530483827436423
30
0
10
2.6201117210492733
20
1.323177929116953
30
0
10
2.6802807029403746
20
1.3970553615648078
30
0
10
2.7549022049583178
20
1.4886780681691105
30
0
10
2.8355694436079739
20
1.5844825595182266
30
0
10
2.9173905029649618
20
1.6594568781018273
30
0
10
2.9788806604176821
20
1.7158015733532241
30
0
10
3.0408832797873924
20
1.7588789792306354
30
0
10
3.0942736785198619
20
1.7903029908876542
30
0
10
3.1435671441625384
20
1.8193156687425642
30
0
10
3.1839514656301331
20
1.8398338339519424
30
0
10
3.2141065360273902
20
1.8613375080837837
30
0
10
3.2471860115481834
20
1.8849265845701058
30
0
10
3.2699617180087679
20
1.9104387438517061
30
0
10
3.3007661445466612
20
1.93899152103107
30
0
10
3.3378175300419679
20
1.9733346357432642
30
0
10
3.3864179773449901
20
2.0098656417768912
30
0
10
3.4269454619288076
20
2.0418747583694841
30
0
10
3.4767727527619035
20
2.0812289787991065
30
0
10
3.5140889283294827
20
2.1171501802891162
30
0
10
3.5477405640477446
20
2.1656666062515746
30
0
10
3.5549862663822633
20
2.1761129210697274
30
0
10
3.5620184486374673
20
2.187034569965487
30
0
10
3.5688413752303614
20
2.1984369483353068
30
0
10
3.5688549325385046
20
2.1984596051168244
30
0
10
3.5688684898466478
20
2.1984822618983415
30
0
10
3.5688820471547924
20
2.1985049186798604
30
0
0
ENDSEC
0
SECTION
2
OBJECTS
0
DICTIONARY
5
C
100
AcDbDictionary
3
ACAD_GROUP
350
D
3
ACAD_MLINESTYLE
350
17
0
DICTIONARY
5
D
100
AcDbDictionary
0
DICTIONARY
5
1A
330
C
100
AcDbDictionary
0
DICTIONARY
5
17
100
AcDbDictionary
0
ENDSEC
0
EOF
