0
SECTION
2
HEADER
9
$INSUNITS
70
1
9
$ACADVER
1
AC1014
9
$HANDSEED
5
FFFF
0
ENDSEC
0
SECTION
2
TABLES
0
TABLE
2
VPORT
5
8
100
AcDbSymbolTable
0
ENDTAB
0
TABLE
2
LTYPE
5
5
100
AcDbSymbolTable
0
LTYPE
5
14
100
AcDbSymbolTableRecord
100
AcDbLinetypeTableRecord
2
BYBLOCK
70
0
0
LTYPE
5
15
100
AcDbSymbolTableRecord
100
AcDbLinetypeTableRecord
2
BYLAYER
70
0
0
ENDTAB
0
TABLE
2
LAYER
5
2
100
AcDbSymbolTable
70
2
0
LAYER
5
50
100
AcDbSymbolTableRecord
100
AcDbLayerTableRecord
2
0
70
0
6
CONTINUOUS
0
ENDTAB
0
TABLE
2
STYLE
5
3
100
AcDbSymbolTable
70
1
0
STYLE
5
11
100
AcDbSymbolTableRecord
100
AcDbTextStyleTableRecord
2
STANDARD
70
0
0
ENDTAB
0
TABLE
2
VIEW
5
6
100
AcDbSymbolTable
70
0
0
ENDTAB
0
TABLE
2
UCS
5
7
100
AcDbSymbolTable
70
0
0
ENDTAB
0
TABLE
2
APPID
5
9
100
AcDbSymbolTable
70
2
0
APPID
5
12
100
AcDbSymbolTableRecord
100
AcDbRegAppTableRecord
2
ACAD
70
0
0
ENDTAB
0
TABLE
2
DIMSTYLE
5
A
100
AcDbSymbolTable
70
1
0
ENDTAB
0
TABLE
2
BLOCK_RECORD
5
1
100
AcDbSymbolTable
70
1
0
BLOCK_RECORD
5
1F
100
AcDbSymbolTableRecord
100
AcDbBlockTableRecord
2
*MODEL_SPACE
0
BLOCK_RECORD
5
1B
100
AcDbSymbolTableRecord
100
AcDbBlockTableRecord
2
*PAPER_SPACE
0
ENDTAB
0
ENDSEC
0
SECTION
2
BLOCKS
0
BLOCK
5
20
100
AcDbEntity
100
AcDbBlockBegin
2
*MODEL_SPACE
0
ENDBLK
5
21
100
AcDbEntity
100
AcDbBlockEnd
0
BLOCK
5
1C
100
AcDbEntity
100
AcDbBlockBegin
2
*PAPER_SPACE
0
ENDBLK
5
1D
100
AcDbEntity
100
AcDbBlockEnd
0
ENDSEC
0
SECTION
2
ENTITIES
0
LINE
5
100
100
AcDbEntity
8
0
100
AcDbLine
10
-1.3597499271661009
20
-1.9628279545110172
30
0
11
-1.1586296039308985
21
-3.4714263878866962
31
0
0
LINE
5
101
100
AcDbEntity
8
0
100
AcDbLine
10
-1.1586296039308985
20
-3.4714263878866962
30
0
11
1.1460195067604211
21
-3.4784794439556475
31
0
0
LINE
5
102
100
AcDbEntity
8
0
100
AcDbLine
10
1.1460195067604211
20
-3.4784794439556475
30
0
11
1.3563696849994282
21
-1.9711402584646704
31
0
0
LINE
5
103
100
AcDbEntity
8
0
100
AcDbLine
10
1.3563696849994282
20
-1.9711402584646704
30
0
11
2.5442666929446873
21
-2.9225427123551411
31
0
0
SPLINE
5
104
100
AcDbEntity
8
0
100
AcDbSpline
70
0
71
3
72
26
73
22
74
0
42
0.000000001
43
0.0000000001
44
0.0000000001
40
-0.00017141256167719425
40
-0.00017141256167719425
40
-0.00017141256167719425
40
-0.00017141256167719425
40
0
40
0
40
0
40
0.21871421923123477
40
0.21871421923123477
40
0.21871421923123477
40
0.39702134123912602
40
0.39702134123912602
40
0.39702134123912602
40
0.58941113612348195
40
0.58941113612348195
40
0.58941113612348195
40
0.86115970782355999
40
0.86115970782355999
40
0.86115970782355999
40
1
40
1
40
1
40
1.000042578970038
40
1.000042578970038
40
1.000042578970038
40
1.000042578970038
10
2.5442666929446869
20
-2.9225427123551473
30
0
10
2.5442979594180488
20
-2.9224567172647928
30
0
10
2.544329225891413
20
-2.9223707221744384
30
0
10
2.5443604923647771
20
-2.9222847270840839
30
0
10
2.5842489736624228
20
-2.8125757262203783
30
0
10
2.64288346459603
20
-2.6994002514848927
30
0
10
2.715942238662282
20
-2.5867161640952228
30
0
10
2.7755035227295308
20
-2.4948502790642397
30
0
10
2.8427851480214366
20
-2.405060425669483
30
0
10
2.9124469696208504
20
-2.3197910089464844
30
0
10
2.9876106726623295
20
-2.2277870249860432
30
0
10
3.0671014842669932
20
-2.1390755446419991
30
0
10
3.1575293656369627
20
-2.0439720778858144
30
0
10
3.2852578016432719
20
-1.9096394264566987
30
0
10
3.4337483167889213
20
-1.7641493604406504
30
0
10
3.5848799913409035
20
-1.6282253368026127
30
0
10
3.662095358916305
20
-1.5587797789561089
30
0
10
3.7402675361093056
20
-1.4914835959659103
30
0
10
3.8191116992740142
20
-1.4265613727359998
30
0
10
3.8191358795639636
20
-1.4265414620905084
30
0
10
3.819160059853913
20
-1.4265215514450167
30
0
10
3.8191842401438638
20
-1.4265016407995241
30
0
0
LINE
5
105
100
AcDbEntity
8
0
100
AcDbLine
10
3.8191842401438647
20
-1.4265016407995241
30
0
11
3.7909747696308584
21
1.7754175075691354
31
0
0
SPLINE
5
106
100
AcDbEntity
8
0
100
AcDbSpline
70
0
71
3
72
32
73
28
74
0
42
0.000000001
43
0.0000000001
44
0.0000000001
40
-1.0000584932494556
40
-1.0000584932494556
40
-1.0000584932494556
40
-1.0000584932494556
40
-1
40
-1
40
-1
40
-0.85424449086063148
40
-0.85424449086063148
40
-0.85424449086063148
40
-0.65877860447876624
40
-0.65877860447876624
40
-0.65877860447876624
40
-0.50749479594005487
40
-0.50749479594005487
40
-0.50749479594005487
40
-0.34615765340233434
40
-0.34615765340233434
40
-0.34615765340233434
40
-0.20696236044818564
40
-0.20696236044818564
40
-0.20696236044818564
40
-0.074808701283256562
40
-0.074808701283256562
40
-0.074808701283256562
40
0
40
0
40
0
40
8.9837482741435599e-05
40
8.9837482741435599e-05
40
8.9837482741435599e-05
40
8.9837482741435599e-05
10
3.7909747696308584
20
1.7754175075691354
30
0
10
3.7909196973149157
20
1.7754260441051042
30
0
10
3.7908646249989739
20
1.7754345806410745
30
0
10
3.7908095526830334
20
1.7754431171770453
30
0
10
3.6535792656702366
20
1.7967146264885703
30
0
10
3.4963420428922363
20
1.8214045012632651
30
0
10
3.3226263640420628
20
1.8515529920351677
30
0
10
3.0896644036649148
20
1.89198372090848
30
0
10
2.827539241691297
20
1.9431537111349542
30
0
10
2.5912219635578388
20
2.0284305789731096
30
0
10
2.4083205963612744
20
2.0944319134545899
30
0
10
2.2419524997354094
20
2.180824536747588
30
0
10
2.0892739273343754
20
2.2810358198278302
30
0
10
1.9264493340361568
20
2.3879064903799119
30
0
10
1.7761923244247277
20
2.5090718027584096
30
0
10
1.6355896042765377
20
2.6442411600881508
30
0
10
1.5142831492759365
20
2.760859924967654
30
0
10
1.4009426532026343
20
2.8898662239855373
30
0
10
1.2985385751036145
20
3.014577284234857
30
0
10
1.2013149309200823
20
3.1329794413804617
30
0
10
1.1141599834948153
20
3.2446543484492683
30
0
10
1.0383917961713434
20
3.3360008660257057
30
0
10
0.9955014234940226
20
3.3877097206258888
30
0
10
0.95619479584494993
20
3.4333878322309634
30
0
10
0.92045882187946448
20
3.4728727860101789
30
0
10
0.92041590962606201
20
3.4729202000905621
30
0
10
0.92037299737265921
20
3.472967614170944
30
0
10
0.92033008511925596
20
3.4730150282513259
30
0
0
SPLINE
5
107
100
AcDbEntity
8
0
100
AcDbSpline
70
0
71
3
72
17
73
13
74
0
42
0.000000001
43
0.0000000001
44
0.0000000001
40
-1.0001294157378371
40
-1.0001294157378371
40
-1.0001294157378371
40
-1.0001294157378371
40
-1
40
-1
40
-1
40
-0.58897990831153646
40
-0.58897990831153646
40
-0.58897990831153646
40
-0.20501013176383276
40
-0.20501013176383276
40
-0.20501013176383276
40
-0.0001978121150085848
40
-0.0001978121150085848
40
-0.0001978121150085848
40
-0.0001978121150085848
10
0.92033008511924619
20
3.4730150282513148
30
0
10
0.92028158259806192
20
3.4729733501761606
30
0
10
0.92023308007687754
20
3.472931672101006
30
0
10
0.92018457755569327
20
3.47288999402585
30
0
10
0.76614184463107493
20
3.3405215223833942
30
0
10
0.62641761763121173
20
3.22052915615313
30
0
10
0.50103804805191576
20
3.1084822910144672
30
0
10
0.38391003828177755
20
3.003809525278303
30
0
10
0.27806086050118195
20
2.9029851233803132
30
0
10
0.1748593486890693
20
2.789373438403449
30
0
10
0.11981089874192023
20
2.7287721250695278
30
0
10
0.065680898876238944
20
2.6650792311337872
30
0
10
0.012281274792243191
20
2.5982943720877967
30
0
0
SPLINE
5
108
100
AcDbEntity
8
0
100
AcDbSpline
70
0
71
3
72
17
73
13
74
0
42
0.000000001
43
0.0000000001
44
0.0000000001
40
0.00019781211500681972
40
0.00019781211500681972
40
0.00019781211500681972
40
0.00019781211500681972
40
0.37119914581391916
40
0.37119914581391916
40
0.37119914581391916
40
0.75758701388313532
40
0.75758701388313532
40
0.75758701388313532
40
1
40
1
40
1
40
1.0001294157378482
40
1.0001294157378482
40
1.0001294157378482
40
1.0001294157378482
10
0.012281274792242841
20
2.5982943720877967
30
0
10
-0.083705025554934864
20
2.7198588409826616
30
0
10
-0.18167782583829173
20
2.8304380682475965
30
0
10
-0.28454648744789102
20
2.9331993749146634
30
0
10
-0.39168141996736217
20
3.0402225001612111
30
0
10
-0.50564576252439231
20
3.1414565803886805
30
0
10
-0.63386330473489993
20
3.2543119724241212
30
0
10
-0.71430474673754185
20
3.325115470265311
30
0
10
-0.79987954487795343
20
3.399807191550877
30
0
10
-0.89025191677492632
20
3.4784305815472019
30
0
10
-0.89030016329015027
20
3.4784725557092457
30
0
10
-0.89034840980537411
20
3.4785145298712914
30
0
10
-0.89039665632059684
20
3.4785565040333331
30
0
0
SPLINE
5
109
100
AcDbEntity
8
0
100
AcDbSpline
70
0
71
3
72
32
73
28
74
0
42
0.000000001
43
0.0000000001
44
0.0000000001
40
-8.9837482744315768e-05
40
-8.9837482744315768e-05
40
-8.9837482744315768e-05
40
-8.9837482744315768e-05
40
0
40
0
40
0
40
0.14487041000214992
40
0.14487041000214992
40
0.14487041000214992
40
0.30063905508859279
40
0.30063905508859279
40
0.30063905508859279
40
0.47207291817943897
40
0.47207291817943897
40
0.47207291817943897
40
0.61311929571544099
40
0.61311929571544099
40
0.61311929571544099
40
0.74420756723956338
40
0.74420756723956338
40
0.74420756723956338
40
0.89037497233369878
40
0.89037497233369878
40
0.89037497233369878
40
1
40
1
40
1
40
1.0000584932494587
40
1.0000584932494587
40
1.0000584932494587
40
1.0000584932494587
10
-0.89039665632059239
20
3.4785565040333388
30
0
10
-0.89043985797578495
20
3.4785093534925218
30
0
10
-0.89048305963097762
20
3.4784622029517034
30
0
10
-0.89052626128617041
20
3.478415052410885
30
0
10
-0.96019729634794515
20
3.4023756745698628
30
0
10
-1.0435148703102275
20
3.3020434194263957
30
0
10
-1.1401423879208237
20
3.1829774993630293
30
0
10
-1.244038949655174
20
3.0549545508260154
30
0
10
-1.3632640907537512
20
2.9074067762333859
30
0
10
-1.4936603874045009
20
2.7709579425106683
30
0
10
-1.6371702757724234
20
2.620786830305482
30
0
10
-1.7930757736304253
20
2.4849447577599126
30
0
10
-1.9608337776302791
20
2.3656314994648704
30
0
10
-2.0988558599671316
20
2.2674670961718335
30
0
10
-2.2460759537046524
20
2.1796181078660721
30
0
10
-2.4082616570519133
20
2.1082673058860819
30
0
10
-2.5589967832503131
20
2.0419539877646757
30
0
10
-2.7236944371482625
20
1.9909116810578043
30
0
10
-2.8906618791220384
20
1.9517914184040701
30
0
10
-3.0768356492447264
20
1.908171137106478
30
0
10
-3.2627465953919708
20
1.8777425567514352
30
0
10
-3.4289212586736353
20
1.851218867345525
30
0
10
-3.5535516579610729
20
1.831326195767599
30
0
10
-3.6679035589157998
20
1.8139522348103274
30
0
10
-3.7712126208999424
20
1.7985856277386358
30
0
10
-3.7712677444335601
20
1.79857742844164
30
0
10
-3.7713228679671795
20
1.7985692291446445
30
0
10
-3.7713779915007977
20
1.798561029847648
30
0
0
LINE
5
110
100
AcDbEntity
8
0
100
AcDbLine
10
-3.7713779915007977
20
1.7985610298476487
30
0
11
-3.8191848009539155
21
-1.4031254813346072
31
0
0
SPLINE
5
111
100
AcDbEntity
8
0
100
AcDbSpline
70
0
71
3
72
26
73
22
74
0
42
0.000000001
43
0.0000000001
44
0.0000000001
40
-1.0000425789700318
40
-1.0000425789700318
40
-1.0000425789700318
40
-1.0000425789700318
40
-1
40
-1
40
-1
40
-0.76728321380340891
40
-0.76728321380340891
40
-0.76728321380340891
40
-0.56333718162254276
40
-0.56333718162254276
40
-0.56333718162254276
40
-0.35558093381011491
40
-0.35558093381011491
40
-0.35558093381011491
40
-0.09376542813041544
40
-0.09376542813041544
40
-0.09376542813041544
40
0
40
0
40
0
40
0.00017141256167389017
40
0.00017141256167389017
40
0.00017141256167389017
40
0.00017141256167389017
10
-3.8191848009539053
20
-1.4031254813346155
30
0
10
-3.8191607429832386
20
-1.4031455396065486
30
0
10
-3.8191366850125705
20
-1.4031655978784832
30
0
10
-3.8191126270419034
20
-1.4031856561504175
30
0
10
-3.6876267139436472
20
-1.5128117022080598
30
0
10
-3.5574607117273818
20
-1.6297959279651206
30
0
10
-3.4321909426493424
20
-1.7505057299771964
30
0
10
-3.322408263139077
20
-1.8562921907136563
30
0
10
-3.2177248555233886
20
-1.9632943842656523
30
0
10
-3.1253407890783023
20
-2.0632466380939842
30
0
10
-3.0312307600816908
20
-2.1650662469077213
30
0
10
-2.9489715368533558
20
-2.2604136372200618
30
0
10
-2.8702956427064263
20
-2.3622697522860192
30
0
10
-2.7711478710857227
20
-2.4906293590528872
30
0
10
-2.6787686598802121
20
-2.6295156913743494
30
0
10
-2.6137159413188882
20
-2.7638087990406413
30
0
10
-2.5904182531582327
20
-2.8119039288634666
30
0
10
-2.5703525931760978
20
-2.8595459551733415
30
0
10
-2.5535401163065021
20
-2.9066833157195076
30
0
10
-2.5535093767657528
20
-2.9067695005705891
30
0
10
-2.553478637225004
20
-2.9068556854216703
30
0
10
-2.5534478976842547
20
-2.9069418702727514
30
0
0
LINE
5
112
100
AcDbEntity
8
0
100
AcDbLine
10
-2.5534478976842547
20
-2.9069418702727514
30
0
11
-1.3597499271661009
21
-1.9628279545110172
31
0
0
ENDSEC
0
SECTION
2
OBJECTS
0
DICTIONARY
5
C
100
AcDbDictionary
3
ACAD_GROUP
350
D
3
ACAD_MLINESTYLE
350
17
0
DICTIONARY
5
D
100
AcDbDictionary
0
DICTIONARY
5
1A
330
C
100
AcDbDictionary
0
DICTIONARY
5
17
100
AcDbDictionary
0
ENDSEC
0
EOF
